<?xml version="1.0" encoding="utf-8" standalone="yes"?>
<!DOCTYPE svg PUBLIC "-//W3C//DTD SVG 1.1//EN" "http://www.w3.org/Graphics/SVG/1.1/DTD/svg11.dtd">
<svg width="51" height="50" viewBox="0 0 51 50" style="fill:none;stroke:none;fill-rule:evenodd;clip-rule:evenodd;stroke-linecap:round;stroke-linejoin:round;stroke-miterlimit:1.5;" version="1.1" xmlns="http://www.w3.org/2000/svg" xmlns:xlink="http://www.w3.org/1999/xlink"><g id="blend" style="mix-blend-mode:multiply"><g id="g-root-writ_3dfcbgf64uh-fill" data-item-order="0" data-item-id="writ_3dfcbgf64uh" data-item-class="Icon Stroke SceneTarget Indexed InsideFill InsideColorFill" data-item-index="2" data-renderer-id="0" transform="translate(-9, -9)"></g><g id="g-root-writ_3dfcbgf64uh-stroke" data-item-order="0" data-item-id="writ_3dfcbgf64uh" data-item-class="Icon Stroke SceneTarget Indexed InsideFill InsideColorFill" data-item-index="2" data-renderer-id="0" transform="translate(-9, -9)"><g id="writ_3dfcbgf64uh-stroke" fill="none" stroke-linecap="round" stroke-linejoin="round" stroke-miterlimit="1.5" stroke="#F669BE" stroke-width="2"><g><path d="M 38 51L 13 51C 11.895 51 11 50.105 11 49L 11 13C 11 11.895 11.895 11 13 11L 41 11C 42.105 11 43 11.895 43 13L 43 25M 23 17L 35 17M 23 23L 35 23M 23 29L 28 29M 17 16.5C 17.276 16.5 17.5 16.724 17.5 17C 17.5 17.276 17.276 17.5 17 17.5C 16.724 17.5 16.5 17.276 16.5 17C 16.5 16.724 16.724 16.5 17 16.5M 17 22.5C 17.276 22.5 17.5 22.724 17.5 23C 17.5 23.276 17.276 23.5 17 23.5C 16.724 23.5 16.5 23.276 16.5 23C 16.5 22.724 16.724 22.5 17 22.5M 17 28.5C 17.276 28.5 17.5 28.724 17.5 29C 17.5 29.276 17.276 29.5 17 29.5C 16.724 29.5 16.5 29.276 16.5 29C 16.5 28.724 16.724 28.5 17 28.5M 44.84 30.34C 44.84 30.34 43.64 28.34 39.62 29.42C 33.84 30.86 32.42 37.28 32.3 38.02M 29.18 39.94L 25.62 45.64L 32.3 45.06M 40.44 40L 51.06 33.5C 52.164 32.543 52.418 30.931 51.662 29.681C 50.906 28.431 49.36 27.907 48 28.44L 29.18 40L 32.3 45.12L 36 42.82M 46.2 41.78L 38.58 39.52C 37.782 39.222 36.886 39.394 36.254 39.965C 35.623 40.536 35.362 41.411 35.578 42.234C 35.793 43.058 36.45 43.692 37.28 43.88L 42.08 45.46C 42.529 48.148 44.575 50.29 47.24 50.86L 47.42 50.86L 48 57M 57 57C 57 57 54.74 39.42 49.12 34.76"></path></g></g></g></g></svg>